<svg width="406" height="50" viewBox="0 0 406 50" fill="none" xmlns="http://www.w3.org/2000/svg">
<path d="M93.5 24.1023H302.5" stroke="#C4A873" stroke-width="4" stroke-linecap="round"/>
<path d="M93.5 24.1023H133.5" stroke="#410003" stroke-width="4" stroke-linecap="round"/>
<path d="M58.8101 35.4863C56.7835 35.4863 55.0341 35.0063 53.5621 34.0463C52.1115 33.065 50.9915 31.7103 50.2021 29.9823C49.4341 28.233 49.0501 26.2063 49.0501 23.9023C49.0501 21.5983 49.4341 19.5823 50.2021 17.8543C50.9915 16.105 52.1115 14.7503 53.5621 13.7903C55.0341 12.809 56.7835 12.3183 58.8101 12.3183C60.8368 12.3183 62.5755 12.809 64.0261 13.7903C65.4768 14.7503 66.5861 16.105 67.3541 17.8543C68.1435 19.5823 68.5381 21.5983 68.5381 23.9023C68.5381 26.2063 68.1435 28.233 67.3541 29.9823C66.5861 31.7103 65.4768 33.065 64.0261 34.0463C62.5755 35.0063 60.8368 35.4863 58.8101 35.4863ZM58.8101 32.4463C60.0261 32.4463 61.1035 32.105 62.0421 31.4223C63.0021 30.7396 63.7488 29.7583 64.2821 28.4783C64.8155 27.1983 65.0821 25.673 65.0821 23.9023C65.0821 22.1316 64.8155 20.6063 64.2821 19.3263C63.7488 18.0463 63.0021 17.065 62.0421 16.3823C61.1035 15.6996 60.0261 15.3583 58.8101 15.3583C57.5728 15.3583 56.4848 15.6996 55.5461 16.3823C54.6075 17.065 53.8715 18.0463 53.3381 19.3263C52.8048 20.6063 52.5381 22.1316 52.5381 23.9023C52.5381 25.673 52.8048 27.1983 53.3381 28.4783C53.8715 29.7583 54.6075 30.7396 55.5461 31.4223C56.4848 32.105 57.5728 32.4463 58.8101 32.4463ZM74.6229 35.1023V16.5423L71.0069 17.3743V14.8783L75.9669 12.7023H78.1429V35.1023H74.6229Z" fill="#410003"/>
<path d="M326.732 35.4863C324.705 35.4863 322.956 35.0063 321.484 34.0463C320.033 33.065 318.913 31.7103 318.124 29.9823C317.356 28.233 316.972 26.2063 316.972 23.9023C316.972 21.5983 317.356 19.5823 318.124 17.8543C318.913 16.105 320.033 14.7503 321.484 13.7903C322.956 12.809 324.705 12.3183 326.732 12.3183C328.759 12.3183 330.497 12.809 331.948 13.7903C333.399 14.7503 334.508 16.105 335.276 17.8543C336.065 19.5823 336.46 21.5983 336.46 23.9023C336.46 26.2063 336.065 28.233 335.276 29.9823C334.508 31.7103 333.399 33.065 331.948 34.0463C330.497 35.0063 328.759 35.4863 326.732 35.4863ZM326.732 32.4463C327.948 32.4463 329.025 32.105 329.964 31.4223C330.924 30.7396 331.671 29.7583 332.204 28.4783C332.737 27.1983 333.004 25.673 333.004 23.9023C333.004 22.1316 332.737 20.6063 332.204 19.3263C331.671 18.0463 330.924 17.065 329.964 16.3823C329.025 15.6996 327.948 15.3583 326.732 15.3583C325.495 15.3583 324.407 15.6996 323.468 16.3823C322.529 17.065 321.793 18.0463 321.26 19.3263C320.727 20.6063 320.46 22.1316 320.46 23.9023C320.46 25.673 320.727 27.1983 321.26 28.4783C321.793 29.7583 322.529 30.7396 323.468 31.4223C324.407 32.105 325.495 32.4463 326.732 32.4463ZM348.049 35.4863C346.47 35.4863 345.105 35.209 343.953 34.6543C342.801 34.0783 341.883 33.2996 341.201 32.3183C340.539 31.3156 340.134 30.185 339.985 28.9263H343.313C343.526 29.993 344.059 30.8783 344.913 31.5823C345.766 32.265 346.822 32.6063 348.081 32.6063C349.019 32.6063 349.83 32.3823 350.513 31.9343C351.195 31.465 351.729 30.8463 352.113 30.0783C352.497 29.3103 352.689 28.4463 352.689 27.4863C352.689 25.9716 352.262 24.7663 351.409 23.8703C350.555 22.953 349.478 22.4943 348.177 22.4943C347.067 22.4943 346.118 22.761 345.329 23.2943C344.539 23.8063 343.963 24.457 343.601 25.2463H340.369L342.289 12.7023H354.385V15.6783H344.849L343.697 21.6623C344.187 21.1076 344.859 20.649 345.713 20.2863C346.587 19.9023 347.569 19.7103 348.657 19.7103C350.171 19.7103 351.473 20.0623 352.561 20.7663C353.649 21.449 354.481 22.377 355.057 23.5503C355.654 24.7236 355.953 26.025 355.953 27.4543C355.953 28.9476 355.633 30.3023 354.993 31.5183C354.353 32.7343 353.435 33.705 352.241 34.4303C351.067 35.1343 349.67 35.4863 348.049 35.4863Z" fill="#410003"/>
<path d="M376.958 12.3523L374.079 15.231L383.43 24.6023L374.079 33.9735L376.958 36.8523L389.208 24.6023L376.958 12.3523Z" fill="#410003"/>
<path d="M29.0425 12.3523L31.9212 15.231L22.5704 24.6023L31.9212 33.9735L29.0425 36.8523L16.7925 24.6023L29.0425 12.3523Z" fill="#C4A873"/>
</svg>
