<svg width="169" height="50" viewBox="0 0 169 50" fill="none" xmlns="http://www.w3.org/2000/svg">
<g clip-path="url(#clip0_238_133)">
<path d="M114.011 32.0166C113.761 34.7198 113.707 37.5097 113.856 40.6614H16.2851C7.65611 40.6614 0.661621 33.6493 0.661621 24.9985C0.661621 16.3477 7.65611 9.33557 16.2851 9.33557H111.407C109.355 11.5005 106.984 13.5787 104.308 15.5643L103.968 15.8184L103.709 16.1563C102.924 17.191 102.686 18.2704 102.954 19.5533C102.969 19.625 102.987 19.6968 103.005 19.7686C102.259 21.1052 101.91 23.1117 102.56 26.1139L102.575 26.1767C102.766 26.9751 103.041 28.0396 103.24 28.8171L103.402 29.445C104.088 32.1602 105.779 32.5638 106.727 32.5638H106.906C107.718 32.513 108.38 32.3545 108.911 32.2259C109.218 32.1542 109.483 32.0884 109.722 32.0585C110.071 32.0166 110.414 31.9628 110.76 31.909C111.303 31.8253 111.816 31.7445 112.29 31.7236C112.469 31.7146 112.654 31.7056 112.839 31.6937C113.265 31.6698 113.668 31.6488 114.044 31.6458C114.035 31.7684 114.023 31.891 114.011 32.0166Z" fill="#5F1412"/>
<path d="M139.612 8.19029C138.52 9.79307 137.357 10.9862 136.137 12.5351C133.918 15.2802 131.529 18.2435 129.366 21.2517C130.321 21.4551 131.281 21.6554 132.206 21.9993C132.286 22.5016 132.256 22.8754 132.11 23.3897C131.806 24.4543 131.204 25.6474 130.422 26.4308C130.073 26.7986 129.697 26.9751 129.289 26.99C128.03 27.0468 126.882 27.0229 125.647 27.1963C122.87 32.3336 122.273 37.9882 122.401 43.6936C122.401 45.5804 122.524 47.1772 122.697 49.0222C122.706 49.1298 122.682 49.2165 122.491 49.369C122.3 49.5216 121.957 49.692 121.572 49.8266C119.475 50.6608 117.441 48.3464 117.286 46.3339C116.794 41.6841 116.534 37.0283 116.976 32.2977C117.071 31.1435 117.232 29.7979 117.575 28.6436C116.699 28.7632 115.687 28.7393 114.81 28.6795C113.934 28.6197 113.003 28.6974 112.141 28.7393C111.178 28.7842 110.274 28.9785 109.349 29.0951C108.424 29.2118 107.697 29.5228 106.73 29.5766C106.578 29.5855 106.441 29.3164 106.286 28.7124C106.131 28.1084 105.719 26.5235 105.469 25.4829C105.143 23.9878 104.786 21.3265 106.42 20.4234C106.205 19.9868 105.961 19.3858 105.868 18.9402C105.776 18.4947 105.832 18.2944 106.077 17.9714C111.699 13.797 116.767 8.70163 120.114 2.49985C120.728 2.40715 121.268 2.61348 121.805 2.91549C122.342 3.21751 122.983 3.67202 123.368 4.09664C123.851 4.68871 124.334 5.40039 124.084 6.10908C122.688 9.7542 120.895 13.2049 118.828 16.4853C117.999 17.8488 117.164 19.1705 116.171 20.4264C117.808 20.4593 119.449 20.3277 121.089 20.3038C125.14 13.4472 129.796 6.98821 133.873 0.307992C134.019 0.0807327 134.174 -4.10434e-06 134.443 0.00896665C134.711 0.0209277 134.908 0.104655 135.141 0.28407C135.874 0.852218 137.059 1.6566 137.73 2.16793C138.836 3.01118 139.534 3.98301 139.898 5.14323C140.262 6.30345 140.235 7.2693 139.603 8.19628L139.612 8.19029Z" fill="#FFB4AC"/>
<path d="M168.306 14.3562C168.386 14.8077 168.356 15.4596 167.873 15.5732C167.664 15.6181 167.473 15.5732 167.274 15.5942C166.17 25.0673 161.314 33.7809 154.442 40.3086C149.544 44.9495 142.899 48.9893 136.241 45.1827C131.269 41.6363 131.18 34.8484 132.596 29.3942C134.574 21.8886 139.176 15.1606 144.99 10.1549C149.422 6.45296 156.566 2.61048 162.295 5.2748C166.137 6.80581 167.584 10.6124 168.309 14.3592L168.306 14.3562ZM152.974 29.445C155.9 25.1211 157.818 20.4354 158.137 15.2443C157.914 12.2899 155.537 10.8068 152.822 11.97C151.859 12.3796 151.122 12.9867 150.314 13.6355C148.08 15.4297 146.171 17.3883 144.423 19.7147C142.201 22.7259 140.319 25.9584 139.284 29.7052C138.881 31.1943 138.481 33.1529 138.571 34.8364C138.684 36.4332 139 38.5563 140.784 39.0856C141.92 39.4265 142.893 39.1962 144.044 38.5234C146.523 37.0881 148.945 34.4925 150.755 32.3216C151.587 31.3139 152.411 30.2912 152.968 29.448L152.974 29.445Z" fill="#FFB4AC"/>
<path d="M21.1499 34.0111C19.3096 34.0111 17.8242 33.6284 16.6908 32.8629C15.5573 32.0974 14.8117 31.0478 14.4507 29.7141L18.3671 27.6897C18.8264 29.1221 19.8763 29.8367 21.5198 29.8367C22.865 29.8367 23.6137 29.442 23.7598 28.6526C23.8583 28.1084 23.4794 27.6569 22.6264 27.295C22.4951 27.2292 21.8956 27.0169 20.8278 26.6521C19.3156 26.1408 18.1762 25.45 17.4036 24.5769C16.6311 23.7037 16.3776 22.5106 16.6401 20.9976C16.9204 19.4157 17.6691 18.1867 18.895 17.3046C20.1179 16.4255 21.5675 15.9829 23.2438 15.9829C24.6875 15.9829 25.9312 16.3238 26.9752 17.0086C28.0192 17.6903 28.7857 18.6682 29.2779 19.936L25.5107 21.9604C24.9678 20.7583 24.0969 20.1573 22.9008 20.1573C21.8658 20.1573 21.2752 20.5281 21.1261 21.2697C21.0276 21.6823 21.1768 22.0232 21.5705 22.2953C21.9642 22.5674 22.7039 22.8934 23.7867 23.2702C24.5413 23.5333 25.1587 23.7815 25.633 24.0117C26.1102 24.242 26.6053 24.5769 27.1243 25.0105C27.6403 25.4471 27.9893 25.9973 28.1713 26.6641C28.3532 27.3309 28.3681 28.1174 28.222 29.0234C27.9267 30.6531 27.1542 31.891 25.9074 32.7403C24.6606 33.5895 23.0738 34.0111 21.1529 34.0111H21.1499Z" fill="white"/>
<path d="M39.6011 33.6403L39.3296 31.1465H33.5909L32.4097 33.6403H27.5568L36.2753 16.3537H41.6442L44.3048 33.6403H39.6011ZM35.4133 27.3429H38.9121L38.2708 21.3684L35.4133 27.3429Z" fill="white"/>
<path d="M55.6988 30.1268C55.6034 29.8786 55.5169 29.6244 55.4423 29.3703H50.7147L52.9965 16.3567H48.594L45.5576 33.6403H58.0403C56.9993 32.6565 56.2148 31.4814 55.6958 30.1268H55.6988Z" fill="white"/>
<path d="M65.2405 34.0111C63.4986 34.0111 61.9804 33.5746 60.6829 32.7014C59.3855 31.8283 58.4668 30.686 57.9239 29.2686C57.3811 27.8542 57.2498 26.3382 57.5302 24.7234C57.9567 22.2535 59.114 20.1812 61.0021 18.5007C62.8902 16.8202 65.1809 15.9829 67.8743 15.9829C70.5677 15.9829 72.5184 16.9009 73.971 18.7369C75.4236 20.5729 75.9455 22.7349 75.5339 25.2198C75.1074 27.7226 73.962 29.8128 72.0978 31.4933C70.2336 33.1739 67.9489 34.0111 65.2376 34.0111H65.2405ZM62.5919 28.3805C63.2898 29.2536 64.304 29.6902 65.6343 29.6902C66.9646 29.6902 68.1576 29.2507 69.2195 28.3685C70.2784 27.4894 70.9226 26.3651 71.1523 24.9985C71.3999 23.632 71.1612 22.5076 70.4394 21.6285C69.7176 20.7494 68.6915 20.3068 67.3613 20.3068C66.031 20.3068 64.8528 20.7464 63.8267 21.6285C62.8007 22.5106 62.1653 23.632 61.9178 24.9985C61.6702 26.38 61.8969 27.5103 62.5949 28.3805H62.5919Z" fill="white"/>
<path d="M76.1036 33.6403L79.1609 16.3537H82.5731L87.0413 25.3932L88.637 16.3537H93.0395L89.9912 33.6403H86.5909L82.1078 24.6038L80.5002 33.6403H76.0977H76.1036Z" fill="white"/>
</g>
<defs>
<clipPath id="clip0_238_133">
<rect width="167.677" height="50" fill="white" transform="translate(0.661621)"/>
</clipPath>
</defs>
</svg>
