<svg width="19" height="15" viewBox="0 0 19 15" fill="none" xmlns="http://www.w3.org/2000/svg">
<path d="M16.773 4.00289C16.7847 4.16183 16.7847 4.32079 16.7847 4.47973C16.7847 9.32737 12.964 14.913 5.98072 14.913C3.82931 14.913 1.83075 14.3113 0.149597 13.2669C0.455272 13.3009 0.749149 13.3122 1.06658 13.3122C2.84176 13.3122 4.4759 12.7333 5.78086 11.7456C4.11146 11.7115 2.71246 10.6557 2.23044 9.20251C2.46559 9.23655 2.7007 9.25926 2.9476 9.25926C3.28852 9.25926 3.62948 9.21383 3.94688 9.1344C2.20696 8.79379 0.901968 7.31793 0.901968 5.53554V5.49014C1.40747 5.76261 1.99533 5.9329 2.61837 5.95558C1.59557 5.2971 0.92549 4.17318 0.92549 2.90166C0.92549 2.2205 1.11356 1.59609 1.44275 1.05115C3.31201 3.27631 6.12178 4.72945 9.27243 4.88841C9.21366 4.61594 9.17838 4.33215 9.17838 4.04832C9.17838 2.02749 10.8713 0.381348 12.9757 0.381348C14.069 0.381348 15.0565 0.824108 15.7501 1.53934C16.6083 1.38041 17.4313 1.07386 18.1602 0.653818C17.878 1.5053 17.2784 2.22053 16.4908 2.67461C17.255 2.59518 17.9956 2.39079 18.6775 2.10699C18.1603 2.83355 17.5136 3.48063 16.773 4.00289Z" fill="white"/>
</svg>
