<svg width="43" height="42" viewBox="0 0 43 42" fill="none" xmlns="http://www.w3.org/2000/svg">
<rect x="0.91333" width="41.173" height="41.173" rx="20.5865" fill="#534341"/>
<g clip-path="url(#clip0_431_464)">
<path d="M21.5032 16.4249C19.1652 16.4249 17.2793 18.2813 17.2793 20.5828C17.2793 22.8843 19.1652 24.7407 21.5032 24.7407C23.8413 24.7407 25.7271 22.8843 25.7271 20.5828C25.7271 18.2813 23.8413 16.4249 21.5032 16.4249ZM21.5032 23.286C19.9923 23.286 18.7571 22.0737 18.7571 20.5828C18.7571 19.0919 19.9887 17.8796 21.5032 17.8796C23.0178 17.8796 24.2493 19.0919 24.2493 20.5828C24.2493 22.0737 23.0141 23.286 21.5032 23.286ZM26.8851 16.2548C26.8851 16.794 26.444 17.2246 25.8999 17.2246C25.3522 17.2246 24.9147 16.7904 24.9147 16.2548C24.9147 15.7192 25.3559 15.285 25.8999 15.285C26.444 15.285 26.8851 15.7192 26.8851 16.2548ZM29.6827 17.2391C29.6202 15.94 29.3188 14.7892 28.3519 13.8411C27.3888 12.893 26.2198 12.5963 24.9 12.5311C23.5398 12.4551 19.463 12.4551 18.1028 12.5311C16.7867 12.5926 15.6177 12.8894 14.6509 13.8375C13.684 14.7856 13.3863 15.9363 13.3201 17.2355C13.2429 18.5744 13.2429 22.5875 13.3201 23.9265C13.3826 25.2256 13.684 26.3763 14.6509 27.3244C15.6177 28.2726 16.783 28.5693 18.1028 28.6344C19.463 28.7104 23.5398 28.7104 24.9 28.6344C26.2198 28.5729 27.3888 28.2762 28.3519 27.3244C29.3151 26.3763 29.6165 25.2256 29.6827 23.9265C29.7599 22.5875 29.7599 18.578 29.6827 17.2391ZM27.9255 25.3631C27.6388 26.0724 27.0837 26.6188 26.3594 26.9047C25.275 27.3281 22.7017 27.2304 21.5032 27.2304C20.3048 27.2304 17.7278 27.3244 16.647 26.9047C15.9265 26.6224 15.3714 26.076 15.081 25.3631C14.6509 24.2956 14.7501 21.7625 14.7501 20.5828C14.7501 19.4031 14.6546 16.8663 15.081 15.8024C15.3677 15.0932 15.9228 14.5467 16.647 14.2609C17.7315 13.8375 20.3048 13.9352 21.5032 13.9352C22.7017 13.9352 25.2787 13.8411 26.3594 14.2609C27.08 14.5431 27.6351 15.0896 27.9255 15.8024C28.3556 16.87 28.2563 19.4031 28.2563 20.5828C28.2563 21.7625 28.3556 24.2992 27.9255 25.3631Z" fill="white"/>
</g>
<defs>
<clipPath id="clip0_431_464">
<rect width="16.4692" height="18.5279" fill="white" transform="translate(13.2651 11.3226)"/>
</clipPath>
</defs>
</svg>
