<svg width="42" height="42" viewBox="0 0 42 42" fill="none" xmlns="http://www.w3.org/2000/svg">
<rect x="0.826904" width="41.173" height="41.173" rx="20.5865" fill="#534341"/>
<g clip-path="url(#clip0_431_467)">
<path d="M28.7728 17.003C28.7846 17.1619 28.7846 17.3209 28.7846 17.4798C28.7846 22.3275 24.9638 27.9131 17.9805 27.9131C15.8291 27.9131 13.8306 27.3114 12.1494 26.267C12.4551 26.301 12.749 26.3124 13.0664 26.3124C14.8416 26.3124 16.4757 25.7334 17.7807 24.7457C16.1113 24.7116 14.7123 23.6558 14.2303 22.2026C14.4654 22.2367 14.7005 22.2594 14.9474 22.2594C15.2883 22.2594 15.6293 22.214 15.9467 22.1345C14.2068 21.7939 12.9018 20.3181 12.9018 18.5357V18.4903C13.4073 18.7627 13.9952 18.933 14.6182 18.9557C13.5954 18.2972 12.9253 17.1733 12.9253 15.9018C12.9253 15.2206 13.1134 14.5962 13.4426 14.0513C15.3118 16.2764 18.1216 17.7296 21.2722 17.8885C21.2135 17.6161 21.1782 17.3323 21.1782 17.0484C21.1782 15.0276 22.8711 13.3815 24.9755 13.3815C26.0688 13.3815 27.0563 13.8242 27.75 14.5395C28.6081 14.3805 29.4311 14.074 30.16 13.6539C29.8778 14.5054 29.2783 15.2207 28.4906 15.6747C29.2548 15.5953 29.9954 15.3909 30.6773 15.1071C30.1601 15.8337 29.5134 16.4808 28.7728 17.003Z" fill="white"/>
</g>
<defs>
<clipPath id="clip0_431_467">
<rect width="18.5279" height="15.4399" fill="white" transform="translate(12.1494 13.3812)"/>
</clipPath>
</defs>
</svg>
