<svg width="17" height="17" viewBox="0 0 17 17" fill="none" xmlns="http://www.w3.org/2000/svg">
<path d="M8.50354 4.42486C6.16551 4.42486 4.27964 6.28126 4.27964 8.58277C4.27964 10.8843 6.16551 12.7407 8.50354 12.7407C10.8416 12.7407 12.7275 10.8843 12.7275 8.58277C12.7275 6.28126 10.8416 4.42486 8.50354 4.42486ZM8.50354 11.286C6.99264 11.286 5.75745 10.0737 5.75745 8.58277C5.75745 7.09186 6.98897 5.87959 8.50354 5.87959C10.0181 5.87959 11.2496 7.09186 11.2496 8.58277C11.2496 10.0737 10.0144 11.286 8.50354 11.286ZM13.8854 4.25478C13.8854 4.79397 13.4443 5.2246 12.9002 5.2246C12.3525 5.2246 11.915 4.79035 11.915 4.25478C11.915 3.71921 12.3562 3.28496 12.9002 3.28496C13.4443 3.28496 13.8854 3.71921 13.8854 4.25478ZM16.683 5.23907C16.6205 3.93995 16.3191 2.7892 15.3522 1.84109C14.3891 0.892988 13.2201 0.596253 11.9003 0.531116C10.5401 0.455123 6.46328 0.455123 5.1031 0.531116C3.78703 0.592634 2.61801 0.889369 1.65118 1.83747C0.684352 2.78558 0.386583 3.93633 0.320412 5.23545C0.243212 6.57438 0.243212 10.5875 0.320412 11.9265C0.382906 13.2256 0.684352 14.3763 1.65118 15.3244C2.61801 16.2726 3.78335 16.5693 5.1031 16.6344C6.46328 16.7104 10.5401 16.7104 11.9003 16.6344C13.2201 16.5729 14.3891 16.2762 15.3522 15.3244C16.3154 14.3763 16.6168 13.2256 16.683 11.9265C16.7602 10.5875 16.7602 6.578 16.683 5.23907ZM14.9258 13.3631C14.6391 14.0724 14.084 14.6188 13.3598 14.9047C12.2753 15.3281 9.70197 15.2304 8.50354 15.2304C7.30512 15.2304 4.72813 15.3244 3.64734 14.9047C2.92681 14.6224 2.37171 14.076 2.08129 13.3631C1.65118 12.2956 1.75044 9.76247 1.75044 8.58277C1.75044 7.40307 1.65486 4.86634 2.08129 3.80244C2.36803 3.09317 2.92313 2.54674 3.64734 2.26086C4.7318 1.83747 7.30512 1.93518 8.50354 1.93518C9.70197 1.93518 12.279 1.84109 13.3598 2.26086C14.0803 2.54312 14.6354 3.08955 14.9258 3.80244C15.3559 4.86996 15.2567 7.40307 15.2567 8.58277C15.2567 9.76247 15.3559 12.2992 14.9258 13.3631Z" fill="white"/>
</svg>
